<?xml version="1.0" encoding="utf-8"?>
<!-- Generator: Adobe Illustrator 26.5.0, SVG Export Plug-In . SVG Version: 6.00 Build 0)  -->
<svg version="1.1" id="Layer_1" xmlns="http://www.w3.org/2000/svg" xmlns:xlink="http://www.w3.org/1999/xlink" x="0px" y="0px"
	 viewBox="0 0 1080 1080" style="enable-background:new 0 0 1080 1080;" xml:space="preserve">
<style type="text/css">
	.st0{fill:#084C61;}
	.st1{fill:#399E5A;}
</style>
<circle class="st0" cx="540" cy="540" r="540"/>
<g>
	<g>
		<path class="st1" d="M473.17,553.03c74.43,3.17,148.87,6.16,223.32,8.85c-12.44,137.53-45.63,282.97-124.67,397.52
			c-43.04,62.37-107.33,122.84-189.34,97.26c-40.97-12.78-76.7-39.97-108.68-68.1c-43.05-37.86-82.32-80.38-119.45-123.67
			C76.19,773.76,0.65,668.01,0.01,542.81c-0.65-126.83,75.9-234.09,154.88-326.36c37.68-44.02,77.55-87.2,121.27-125.68
			c32.24-28.37,68.17-56.05,109.91-68.51C474.72-4.21,540.42,71.9,584.79,137.99c59.34,90.61,90.28,198.65,108.94,304.3
			c-75.81,6.16-151.48,13.7-227.05,22.29c-13.62-65.63-41.54-179.16-130.21-170c-47.14,4.87-81.83,40.15-107.07,76.94
			c-34.53,50.34-49.28,111.92-49.12,171.87c0.16,58.06,14.92,117.5,48.56,166.11c24.79,35.83,59.15,69.76,104.74,74.89
			c41.96,4.73,74.81-18.6,95.95-52.11C462.01,680.79,469.09,613.66,473.17,553.03z"/>
		<path class="st1" d="M933.12,169.79c51.8,56.34,90.78,120.36,116.89,192.31c-8.81-6.09-18.83-12.26-28.51-15.89
			c-9.4-3.53-21.66,3.42-24.91,12.4c-5.29,14.61-4.84,33.5-2.37,49.1c3.74,23.7,14.28,47.05,23.91,69.41
			c5.29,11.96,10.37,24.01,15.22,36.15c21.43,56.38,31.62,115.08,15.82,174.33c-21.35,80.03-75.77,146.98-129.64,207.34
			c-43.46,48.69-93.25,109.87-152.36,135.11c-21.32,9.11-38.65,9.33-60.78-1.31c20.74-89.59,34.19-180.42,42.69-271.96
			c12,10.96,27.28,24.82,45.13,22.07c18.54-2.86,31.72-13.84,43.27-27.29c13.23-15.39,21.03-36.69,23.07-57.03
			c3.14-31.37-10.65-66.63-19.82-96.09c-25.54-80.77-44.03-163.96-51.98-247.77c-6.65-70.11-10.38-150.12,15.66-215.61
			c5.38-13.54,12.45-32.57,28.95-36.07c15.97-3.38,32.08,10.15,43.45,18.9C896.66,133.18,914.84,152.06,933.12,169.79z"/>
	</g>
</g>
</svg>
