<?xml version="1.0" encoding="utf-8"?>
<!-- Generator: Adobe Illustrator 26.5.0, SVG Export Plug-In . SVG Version: 6.00 Build 0)  -->
<svg version="1.1" id="Layer_1" xmlns="http://www.w3.org/2000/svg" xmlns:xlink="http://www.w3.org/1999/xlink" x="0px" y="0px"
	 viewBox="0 0 1080 1080" style="enable-background:new 0 0 1080 1080;" xml:space="preserve">
<style type="text/css">
	.st0{fill:#084C61;}
	.st1{fill:#399E5A;}
</style>
<circle class="st0" cx="540" cy="540" r="540"/>
<g>
	<g>
		<path class="st1" d="M144.51,907.68C22.95,773.75-24.73,593.58,14.1,416.89c21-90,83.53-164.64,145.11-230.39
			c53.35-56.96,114.17-124.06,188.22-151.15c63.88-23.37,116.23,0.35,154,55.07c57.05,82.67,68.29,193.99,69.78,292.96
			c1.78,224.83,0.17,449.75-6.98,674.48c-65.33,1.86-129.16-5.72-192.13-23.28c-50.8-210.19-63.11-429.33-50.29-644.73
			c1.34-28.7,4.65-95.05-41.82-88.63c-42.78,5.91-55.08,61.09-58.48,96.33c-19.15,204.9,0.6,416.42,74.98,609.3
			C240.78,981.18,190.35,948.43,144.51,907.68z"/>
		<path class="st1" d="M933.12,169.79c51.8,56.34,90.78,120.36,116.89,192.31c-10.84-6.52-21.82-13.55-33.91-17.41
			c-12.21-3.9-25.11,0.1-31.79,11.18c-8.74,14.49-8.04,33.69-5.77,49.54c3.5,24.43,15.83,48.33,26.96,70.81
			c6.19,12.16,12.21,24.4,18.01,36.74c25.08,55.71,39.3,114.73,23.32,175.15c-21.99,83.16-82.21,151.92-139.2,213.24
			c-49.56,53.31-107.66,120.07-177.16,144.11c-28.33,9.8-52.27,8.36-80.37-3.93c13.56-92.71,22.28-185.96,27.79-279.48
			c16.82,12.59,35.77,25.24,57.75,23.44c20.12-1.65,39.08-13.1,52.46-27.83c14.74-16.23,24.12-36.97,25.84-58.72
			c2.56-32.41-15.87-69.44-27.41-98.86c-32.32-81.72-54.59-167.51-60.49-254.5c-4.99-73.57-1.29-159.53,38.82-222.85
			c10.32-16.29,23.76-34.23,44.93-36.66c21.12-2.42,41.57,12.55,57.13,24.1C890.38,127.6,911.76,149.22,933.12,169.79z"/>
	</g>
</g>
</svg>
